# xmcd
#
# Track frame offsets: 
#        150
#        17255
#        31827
#        52362
#        69277
#        90702
#        110862
#        127115
#        140050
#        157875
#
# Disc length: 2292 seconds
#
# Revision: 5
# Processed by: cddbd v1.5.2PL0 Copyright (c) Steve Scherf et al.
# Submitted via: ExactAudioCopy v1.0b1
#
DISCID=8808f20a
DTITLE=Crowded House - Temple Of Low Men
DYEAR=1988
DGENRE=Pop
TTITLE0=I Feel Possessed
TTITLE1=Kill Eye
TTITLE2=Into Temptation
TTITLE3=Mansion In The Slums
TTITLE4=When You Come
TTITLE5=Never Be The Same
TTITLE6=Love This Life
TTITLE7=Sister Madly
TTITLE8=In The Lowlands
TTITLE9=Better Be Home Soon
EXTD=Capitol\nCDP 7 48763 2
EXTT0=
EXTT1=
EXTT2=
EXTT3=
EXTT4=
EXTT5=
EXTT6=
EXTT7=
EXTT8=
EXTT9=
PLAYORDER=
